<?xml version="1.0" encoding="UTF-8" standalone="no"?>
<svg
   xmlns:dc="http://purl.org/dc/elements/1.1/"
   xmlns:cc="http://creativecommons.org/ns#"
   xmlns:rdf="http://www.w3.org/1999/02/22-rdf-syntax-ns#"
   xmlns:svg="http://www.w3.org/2000/svg"
   xmlns="http://www.w3.org/2000/svg"
   xmlns:sodipodi="http://sodipodi.sourceforge.net/DTD/sodipodi-0.dtd"
   xmlns:inkscape="http://www.inkscape.org/namespaces/inkscape"
   id="svg2853"
   viewBox="0 0 374.46 186.69"
   version="1.1"
   inkscape:version="0.48.4 r9939"
   width="100%"
   height="100%"
   sodipodi:docname="logo.svg">
  <defs
     id="defs3958" />
  <sodipodi:namedview
     pagecolor="#ffffff"
     bordercolor="#666666"
     borderopacity="1"
     objecttolerance="10"
     gridtolerance="10"
     guidetolerance="10"
     inkscape:pageopacity="0"
     inkscape:pageshadow="2"
     inkscape:window-width="1858"
     inkscape:window-height="1057"
     id="namedview3956"
     showgrid="false"
     inkscape:zoom="3.0974253"
     inkscape:cx="138.38445"
     inkscape:cy="93.173137"
     inkscape:window-x="54"
     inkscape:window-y="-8"
     inkscape:window-maximized="1"
     inkscape:current-layer="layer2" />
  <g
     inkscape:groupmode="layer"
     id="layer3"
     inkscape:label="Ebene#1"
     transform="translate(0,11)">
    <g
       id="g5267"
       transform="matrix(0.99896839,-0.20142736,0.20125838,0.99813034,42.409682,44.79859)">
      <path
         sodipodi:nodetypes="cssc"
         inkscape:connector-curvature="0"
         id="path5188"
         d="m 232.45113,159.69868 c 28.80414,-2.83683 59.49344,-35.84747 65.32307,-53.80814 C 330.15085,6.1404136 258.18052,103.61376 166.80522,43.580722 74.080514,-17.338858 -16.694306,-17.320447 23.567956,89.317631"
         style="fill:none;stroke:#fa0000;stroke-width:2.5;stroke-linecap:round;stroke-linejoin:round;stroke-miterlimit:4;stroke-opacity:1;stroke-dasharray:none" />
      <path
         sodipodi:nodetypes="cssc"
         inkscape:connector-curvature="0"
         id="path5188-1"
         d="m 228.62774,156.4436 c 28.80413,-2.83683 59.49343,-35.84747 65.32306,-53.80814 C 326.32745,2.8853349 254.35712,100.35868 162.98183,40.325643 70.257118,-20.593936 -20.5177,-20.575525 19.744561,86.062552"
         style="fill:none;stroke:#fa6800;stroke-width:2.5;stroke-linecap:round;stroke-linejoin:round;stroke-miterlimit:4;stroke-opacity:1;stroke-dasharray:none" />
      <path
         sodipodi:nodetypes="cssc"
         inkscape:connector-curvature="0"
         id="path5188-7"
         d="M 223.84187,153.08061 C 252.646,150.24378 283.3353,117.23314 289.16493,99.27247 321.54158,-0.47765364 249.57125,96.99569 158.19596,36.962654 65.471257,-23.956925 -25.303561,-23.938514 14.9587,82.699563"
         style="fill:none;stroke:#fac500;stroke-width:2.5;stroke-linecap:round;stroke-linejoin:round;stroke-miterlimit:4;stroke-opacity:1;stroke-dasharray:none" />
      <path
         sodipodi:nodetypes="cssc"
         inkscape:connector-curvature="0"
         id="path5188-11"
         d="m 218.34645,149.72196 c 28.80413,-2.83683 59.49343,-35.84747 65.32306,-53.808138 C 316.04616,-3.8363039 244.07583,93.637042 152.70054,33.604004 59.975827,-27.315575 -30.798983,-27.297164 9.4632768,79.340913"
         style="fill:none;stroke:#f5fa00;stroke-width:2.5;stroke-linecap:round;stroke-linejoin:round;stroke-miterlimit:4;stroke-opacity:1;stroke-dasharray:none" />
      <path
         sodipodi:nodetypes="cssc"
         inkscape:connector-curvature="0"
         id="path5188-5"
         d="m 212.85802,144.55638 c 28.80413,-2.83683 59.49343,-35.84747 65.32306,-53.808138 C 310.55773,-9.0018838 238.5874,88.471462 147.21211,28.438424 54.487403,-32.481155 -36.287417,-32.462744 3.9748426,74.175333"
         style="fill:none;stroke:#9efa00;stroke-width:2.5;stroke-linecap:round;stroke-linejoin:round;stroke-miterlimit:4;stroke-opacity:1;stroke-dasharray:none" />
      <path
         sodipodi:nodetypes="cssc"
         inkscape:connector-curvature="0"
         id="path5188-2"
         d="m 206.7239,140.68219 c 28.80413,-2.83682 59.49343,-35.84746 65.32306,-53.808133 C 304.42361,-12.876069 232.45328,84.597277 141.07799,24.564239 48.353277,-36.35534 -42.421543,-36.336929 -2.1592834,70.301148"
         style="fill:none;stroke:#00fa4f;stroke-width:2.5;stroke-linecap:round;stroke-linejoin:round;stroke-miterlimit:4;stroke-opacity:1;stroke-dasharray:none" />
      <path
         sodipodi:nodetypes="cssc"
         inkscape:connector-curvature="0"
         id="path5188-76"
         d="m 201.55831,137.45371 c 28.80413,-2.83683 59.49343,-35.84747 65.32306,-53.808142 C 299.25802,-16.104558 227.28769,81.368788 135.9124,21.335751 43.187689,-39.583829 -47.587121,-39.565418 -7.3248612,67.072659"
         style="fill:none;stroke:#00facf;stroke-width:2.5;stroke-linecap:round;stroke-linejoin:round;stroke-miterlimit:4;stroke-opacity:1;stroke-dasharray:none" />
      <path
         sodipodi:nodetypes="cssc"
         inkscape:connector-curvature="0"
         id="path5188-14"
         d="M 197.04542,133.70968 C 225.84955,130.87285 256.53885,97.862214 262.36848,79.901544 294.74513,-19.848581 222.7748,77.624764 131.39951,17.591728 38.674808,-43.327851 -52.10001,-43.30944 -11.837749,63.328637"
         style="fill:none;stroke:#00b7fa;stroke-width:2.5;stroke-linecap:round;stroke-linejoin:round;stroke-miterlimit:4;stroke-opacity:1;stroke-dasharray:none" />
      <path
         sodipodi:nodetypes="cssc"
         inkscape:connector-curvature="0"
         id="path5188-23"
         d="M 193.16425,129.38248 C 221.96838,126.54565 252.65768,93.535014 258.48731,75.574349 290.86396,-24.175777 218.89363,73.297569 127.51834,13.264531 34.793627,-47.655048 -55.981193,-47.636637 -15.718932,59.00144"
         style="fill:none;stroke:#0049fa;stroke-width:2.5;stroke-linecap:round;stroke-linejoin:round;stroke-miterlimit:4;stroke-opacity:1;stroke-dasharray:none" />
      <path
         sodipodi:nodetypes="cssc"
         inkscape:connector-curvature="0"
         id="path5188-22"
         d="M 188.32151,124.53976 C 217.12564,121.70293 247.81494,88.692287 253.64457,70.731617 286.02122,-29.018509 214.05089,68.454837 122.6756,8.4217993 29.950891,-52.49778 -60.823929,-52.479369 -20.561659,54.158708"
         style="fill:none;stroke:#9300fa;stroke-width:2.5;stroke-linecap:round;stroke-linejoin:round;stroke-miterlimit:4;stroke-opacity:1;stroke-dasharray:none" />
    </g>
  </g>
  <g
     inkscape:groupmode="layer"
     id="layer2"
     inkscape:label="Ebene"
     transform="translate(0,11)">
    <g
       id="layer1"
       transform="translate(-24.29313,-265.11042)">
      <path
         id="path6475"
         d="m 251.73448,259.14 c 1.2364,0.0721 3.8813,1.8087 3.8813,1.8087 l 2.2609,2.1479 c 0,0 3.9835,3.0254 4.5218,3.2407 0.53832,0.21533 3.5475,1.3916 4.4088,1.7145 0.8613,0.32299 1.3,1.4131 1.3,1.4131 0,0 0.54101,0.63791 -0.3203,0.96089 -0.86131,0.323 -0.86131,1.292 -1.5073,1.5073 -0.64598,0.21533 -1.0928,2.1479 -1.0928,2.1479 0,0 -0.75364,6.2445 -0.75364,7.5364 0,1.292 -1.0739,0.65943 -1.0739,0.65943 l -0.9609,0.9609 c 0,0 0.10767,2.4709 0,2.9015 -0.10766,0.43065 0.43335,3.0146 0.43335,3.0146 l -1.5073,0.54639 -0.75364,1.6203 -0.11305,1.6015 -2.0537,1.3 -0.20726,1.5073 -1.5073,1.187 -0.6406,1.6015 -1.3,1.9406 -2.374,-0.20725 -4.2958,-1.7334 0.20725,2.6001 1.7334,2.3551 c 0,0 1.5046,2.7966 2.5812,5.5958 1.0766,2.7992 -1.9433,5.3966 -2.374,6.6886 -0.43065,1.292 -5.5958,9.8916 -5.5958,9.8916 0,0 -0.85593,4.5219 -0.6406,6.0292 0.21532,1.5073 -2.374,10.551 -2.374,10.551 l 0.6406,3.674 3.0146,5.1624 1.9406,9.251 7.3292,13.792 3.0146,1.2812 4.5219,1.3 3.2218,6.6698 1.3,2.374 -2.374,1.0739 18.087,8.8365 41.563,22.383 c 0,0 9.78693,6.03549 11.72483,6.68149 -5.36945,-0.41062 -2.78692,-1.50754 0.54073,1.08091 -0.43065,0.32299 -6.2364,2.1479 -6.2364,2.1479 l -11.625,-5.1624 -22.609,-12.058 -18.954,-11.625 -10.438,-5.7088 -2.9204,-0.75364 c 0,0 -1.8195,1.4023 -2.0348,1.9406 -0.21532,0.53832 -2.487,-2.487 -2.487,-2.487 l -3.4479,-0.86669 -4.7291,-2.2609 -3.3349,-5.1625 -11.097,-6.0292 -3.8624,1.8276 -0.33914,-1.6015 0.33914,-2.1667 -2.374,1.4131 -1.3,-1.187 -3.0146,-0.65944 c 0,0 -3.1115,-1.6069 -3.5421,-1.7145 -0.43065,-0.10766 -2.487,-5.3886 -2.487,-5.3886 l -0.0942,-4.2016 -1.0928,-0.4145 -0.75364,-2.374 -5.1625,-5.2755 -3.4479,-3.2407 -4.9552,-6.877 -4.5219,-7.2161 -2.7885,0.86669 -1.7334,1.7145 3.3537,4.3146 4.4088,4.7291 3.7682,5.7088 2.5812,5.1624 -0.64059,4.6349 -4.0885,6.6697 -4.4276,6.7828 0.11304,3.0146 -3.9755,8.4031 -7.2161,16.693 -1.9406,4.2958 -0.11305,3.7682 1.6203,2.9015 c 0,0 1.7199,2.9096 1.8276,3.4479 0.10766,0.53832 1.8384,2.4763 2.0537,3.0146 0.21532,0.53832 3.6552,2.81 4.4088,3.2407 0.75365,0.43065 0.97167,1.8168 1.187,2.3551 0.21532,0.53831 -2.3767,2.7077 -2.8073,2.6001 -0.43065,-0.10767 -4.8422,1.0739 -4.8422,1.0739 l -6.8958,0.75364 c 0,0 -5.6927,-1.2973 -5.3697,-2.374 0.32298,-1.0766 -2.1667,-2.0537 -2.1667,-2.0537 l -4.0885,0.54639 -3.9755,-2.6943 c 0,0 0.54101,-4.6188 0.43334,-5.0494 -0.10766,-0.43065 1.5073,-5.0682 1.5073,-5.0682 0,0 1.6123,-3.1169 1.8276,-3.6552 0.21532,-0.53832 3.2218,-9.0437 3.2218,-9.0437 l 1.8276,-7.9698 0.86669,-6.4625 c 0,0 1.4992,-7.6522 1.7145,-8.0828 0.21533,-0.43065 3.0226,-8.177 3.561,-8.9307 0.53832,-0.75364 3.238,-2.7912 3.561,-3.2218 0.32299,-0.43065 1.4938,-2.5866 1.6015,-3.4479 0.10767,-0.86131 -0.52755,-3.3349 -0.52755,-3.3349 l -4.2016,-2.487 0,1.7334 -3.7682,4.4088 c 0,0 -11.531,11.081 -11.531,11.512 0,0.43065 -2.1479,3.2407 -2.1479,3.2407 l -3.1276,2.1479 -5.2755,0.75365 c 0,0 -0.0969,0.75364 0.22609,1.5073 0.323,0.75365 -2.487,2.1479 -2.487,2.1479 l -6.877,2.8073 c 0,0 -15.625,11.307 -15.732,11.738 -0.10766,0.43066 -3.2245,2.6889 -3.6552,2.5812 -0.43065,-0.10766 -2.2636,1.6069 -2.6943,1.7145 -0.43066,0.10766 0.32837,1.8384 0.86669,2.8073 0.53832,0.96897 -0.74557,1.8384 -0.9609,2.8073 -0.21533,0.96897 -2.1533,2.5812 -2.2609,3.3349 -0.10767,0.75365 -1.1951,2.6808 -1.7334,3.5421 -0.53831,0.8613 -1.1816,3.5583 -1.0739,4.6349 0.10766,1.0766 1.9326,3.2272 2.9015,4.0885 0.96897,0.8613 0.85862,2.9069 1.0739,3.7682 0.21532,0.86131 -1.3835,0.86131 -1.9218,0.75365 -0.53832,-0.10767 -6.3683,-1.074 -6.3683,-1.074 l -5.69,-3.6552 -2.6001,-4.0885 0,-4.9552 c 0,0 0.11305,-6.4652 0.11305,-7.6495 0,-1.1843 -1.7226,-1.7307 -3.0146,-2.8073 -1.292,-1.0766 -1.187,-1.6015 -1.187,-1.6015 0,0 -1.0659,-4.3146 -1.2812,-5.0682 -0.21532,-0.75364 -0.22609,-3.0038 -0.22609,-4.2958 0,-1.292 1.615,-1.7226 2.2609,-2.2609 0.64598,-0.53832 3.6659,-0.11843 4.6349,-0.2261 0.96897,-0.10766 4.7291,0 4.7291,0 l 4.748,-1.187 4.2958,-4.4088 7.5364,-5.4828 2.8073,-4.9552 c 0,0 6.6697,-6.3629 7.4234,-7.0089 0.75365,-0.64598 3.2299,-1.9379 4.5219,-2.2609 1.292,-0.32299 4.2096,-0.95821 4.748,-1.2812 0.53831,-0.323 2.4628,-4.6376 2.3551,-5.0682 -0.10766,-0.43066 2.6001,-7.4234 2.6001,-7.4234 l 1.7145,-7.7625 3.4479,-6.2364 -0.75365,-1.187 c 0,0 -2.051,-2.9096 -2.374,-3.4479 -0.32299,-0.53831 -1.5073,-3.7628 -1.5073,-5.1625 0,-1.3996 -0.32837,-4.2042 -0.11305,-5.3885 0.21533,-1.1843 0.005,-6.5567 0.11305,-7.3103 0.10766,-0.75365 1.2893,-4.2042 1.8276,-5.3886 0.53832,-1.1843 5.3939,-5.7062 6.2552,-6.7828 0.86131,-1.0766 5.585,-4.3146 6.877,-5.0682 1.292,-0.75365 10.233,-6.3468 10.664,-6.6698 0.43066,-0.32299 16.693,-9.6843 16.693,-9.6843 0,0 10.01,-5.8084 11.625,-5.9161 1.6149,-0.10766 11.945,-1.4131 11.945,-1.4131 l 5.0682,1.3 c 0,0 4.8502,-0.33375 5.3886,-0.97973 0.53831,-0.64599 0.53562,-1.8168 0.3203,-2.3551 -0.21533,-0.53832 1.4992,-3.3376 1.7145,-3.7682 0.21533,-0.43065 -0.3203,-2.1667 -0.3203,-2.1667 l 1.5073,-2.7885 c 0,0 2.1533,-2.9096 2.2609,-3.4479 0.10766,-0.53831 -0.11574,-2.592 -0.5464,-2.8073 -0.43065,-0.21533 1.3,-1.1682 1.3,-1.1682 l 4.6349,-0.33914 3.7682,-0.52755 c 0,0 3.4345,-0.53563 4.2958,-1.0739 0.10766,-0.0673 0.25671,-0.10451 0.43334,-0.0942 z m -20.669,63.174 -3.1276,0.54639 -4.2016,1.2812 -4.5219,3.561 -6.99,0.43335 -0.11305,1.6203 1.4131,3.6552 7.6306,16.26 1.5073,0.9609 3.9943,7.5364 3.6552,3.7682 c 0,0 5.7008,6.3575 5.9161,6.8958 0.21533,0.53832 0,3.4479 0,3.4479 l 8.5162,4.4088 -6.4625,-8.6104 -3.9943,-4.8422 -2.6754,-6.6886 c 0,0 -2.2636,-6.0211 -2.6943,-6.2364 -0.43065,-0.21533 -0.54639,-7.0977 -0.54639,-7.7437 0,-0.64599 0.54639,-9.3829 0.54639,-9.3829 l 2.1479,-10.871 z"
         inkscape:connector-curvature="0"
         style="fill:#000000"
         sodipodi:nodetypes="cccccccccsccccccccccccccccsccscccccccccccccccccccccccccccccccccccccccccccccccccccccccccccccccscccccccccscccccccsccccccccccccsccccccccssccscsccccccscccccccssccscccccccssccccccccccccccccccccccccccccsccc" />
    </g>
  </g>
  <metadata
     id="metadata3954">
    <rdf:RDF>
      <cc:Work>
        <dc:format>image/svg+xml</dc:format>
        <dc:type
           rdf:resource="http://purl.org/dc/dcmitype/StillImage" />
        <cc:license
           rdf:resource="http://creativecommons.org/licenses/publicdomain/" />
        <dc:publisher>
          <cc:Agent
             rdf:about="http://openclipart.org/">
            <dc:title>Openclipart</dc:title>
          </cc:Agent>
        </dc:publisher>
        <dc:title />
        <dc:date>2010-08-03T23:23:17</dc:date>
        <dc:description>Part of set of Silhouettes based on sports, in a nice vibrant colours of Ubuntu palette in Inkscape.</dc:description>
        <dc:source>http://openclipart.org/detail/76951/grass-hockey-by-shokunin</dc:source>
        <dc:creator>
          <cc:Agent>
            <dc:title>shokunin</dc:title>
          </cc:Agent>
        </dc:creator>
        <dc:subject>
          <rdf:Bag>
            <rdf:li>Olympics</rdf:li>
            <rdf:li>clip art</rdf:li>
            <rdf:li>clipart</rdf:li>
            <rdf:li>colours</rdf:li>
            <rdf:li>cricket</rdf:li>
            <rdf:li>grass hockey</rdf:li>
            <rdf:li>hockey</rdf:li>
            <rdf:li>run</rdf:li>
            <rdf:li>runner</rdf:li>
            <rdf:li>running</rdf:li>
            <rdf:li>silhouette</rdf:li>
            <rdf:li>speed</rdf:li>
            <rdf:li>sports</rdf:li>
            <rdf:li>sports2010</rdf:li>
          </rdf:Bag>
        </dc:subject>
      </cc:Work>
      <cc:License
         rdf:about="http://creativecommons.org/licenses/publicdomain/">
        <cc:permits
           rdf:resource="http://creativecommons.org/ns#Reproduction" />
        <cc:permits
           rdf:resource="http://creativecommons.org/ns#Distribution" />
        <cc:permits
           rdf:resource="http://creativecommons.org/ns#DerivativeWorks" />
      </cc:License>
    </rdf:RDF>
  </metadata>
</svg>
